<svg xmlns="http://www.w3.org/2000/svg" fill="none" viewBox="0 0 32 32"><path fill="#E04E39" fill-rule="evenodd" d="M7.18854 17.2146c.32052.3092.74997.482 1.19685.4814.23054.0003.4586-.0456.6709-.1348.21231-.0893.40431-.2201.56454-.3848L21.2309 5.27655c.1583-.16086.2831-.35119.3671-.56006.0841-.20887.1257-.43217.1226-.65708-.0031-.2249-.0508-.44699-.1406-.6535-.0897-.20652-.2197-.3934-.3823-.54992-.1627-.15651-.3549-.27958-.5656-.36214-.2107-.08256-.4357-.12298-.6622-.11895-.2264.00404-.4498.05245-.6574.14247-.2076.09001-.3952.21985-.5521.38206L7.15013 14.7993c-.31741.3254-.49169.7626-.48449 1.2156.0072.4529.1953.8845.5229 1.1997ZM29.8749 12.469C28.9722 12.1648 28.0053 12 27 12h-1.2587l1.3033-1.3358c.319-.3186.7515-.4997 1.2038-.5039.4524-.0042.8883.1688 1.2131.4814.3249.3127.5127.7398.5228 1.189.0049.2198-.033.4363-.1094.6383Zm-14.111 1.7294 8.1317-8.33482c.3186-.3143.7487-.49191 1.1979-.49468.4491-.00277.8814.16953 1.2039.47987.3226.31035.5097.73397.5211 1.17984.0115.44587-.1537.8784-.4599 1.20465l-3.6788 3.77064c-2.5565.0618-4.9301.8616-6.9159 2.1945Zm-4.414 5.0267c-.8613 1.7341-1.3467 3.6878-1.3499 5.7546l-1.55604 1.595c-.16022.1646-.3522.2954-.56447.3846-.21227.0892-.44047.135-.67097.1347-.44682.0006-.87621-.1721-1.19666-.4814-.16225-.156-.29196-.3423-.38171-.5481-.08975-.2059-.13778-.4273-.14135-.6516-.00356-.2243.0374-.4471.12056-.6556.08316-.2086.20688-.3989.36409-.5599l4.37235-4.4817c.2716-.2714.6256-.443 1.0041-.4906Zm-8.57984-5.3826c.28166.1853.61204.2842.9499.2842.23052.0002.45872-.0456.67099-.1349.21227-.0892.40424-.2201.56446-.3847l4.37255-4.48165c.31256-.32629.48274-.76196.4735-1.21221-.00924-.45026-.19714-.87868-.52283-1.19206-.32569-.31337-.76281-.48636-1.21627-.48131-.45346.00505-.88657.18772-1.2051.50827L2.48471 11.23c-.2351.241-.39353.5454-.45552.8752-.06198.3299-.02477.6705.10698.9795.13176.3089.35222.5725.63389.7578Zm2.84534 7.2861c.08536-.2093.12808-.4334.12568-.6592-.00479-.4499-.18812-.8798-.51018-1.1962-.32206-.3165-.75683-.494-1.2099-.494s-.88785.1775-1.20991.494c-.32205.3164-.50538.7463-.51017 1.1962-.00241.2258.04031.4499.12568.6592.08536.2094.21168.3998.37164.5604.15996.1605.3504.288.56028.375.20988.0869.43505.1317.66248.1317.22742 0 .45259-.0448.66248-.1317.20988-.087.40031-.2145.56027-.375.15997-.1606.28628-.351.37165-.5604Zm8.1647-16.76649c.0864-.20723.1309-.42934.1309-.65365 0-.33788-.1008-.66818-.2898-.94913-.189-.28096-.4577-.49994-.772-.62926-.3143-.12932-.6602-.16316-.9939-.09725-.3337.0659-.6402.2286-.8808.46752-.2406.23892-.4044.54332-.4708.87471-.0664.33139-.0323.67488.0979.98703.1302.31216.3508.57895.6337.76664.2829.18769.6155.28786.9557.28782.2259 0 .4495-.04418.6582-.13002s.3983-.21166.558-.37027c.1597-.15861.2864-.3469.3729-.55414Z" clip-rule="evenodd"/><path fill="#E04E39" d="M17.4239 15.1978h2.4884v7.3408c0 .9598-.09 1.6981-.27 2.2149-.2418.675-.6804 1.2182-1.3159 1.6295-.6354.4061-1.4733.6091-2.5137.6091-1.2203 0-2.1594-.3191-2.8173-.9572-.658-.6433-.9898-1.5847-.9954-2.824l2.3534-.2531c.0282.6645.1322 1.1338.3121 1.4081.27.4166.6805.6249 1.2316.6249.5567 0 .9504-.1477 1.1809-.443.2306-.3006.3459-.9202.3459-1.8589v-7.4911ZM21.9452 23.0211l2.4293-.2215c.1462.7647.4415 1.3263.8857 1.6849.4499.3586 1.0544.5379 1.8136.5379.8042 0 1.4087-.1582 1.8136-.4746.4105-.3217.6158-.6961.6158-1.1233 0-.2742-.0872-.5062-.2615-.6961-.1687-.1951-.4668-.3639-.8942-.5063-.2924-.0949-.9588-.2636-1.9991-.5062-1.3384-.3112-2.2775-.6935-2.8174-1.147-.7592-.6381-1.1388-1.416-1.1388-2.3336 0-.5906.1772-1.1417.5315-1.6532.3599-.5168.8744-.9097 1.5436-1.1787.6748-.2689 1.4874-.4034 2.4378-.4034 1.5521 0 2.719.3191 3.5006.9572.7873.6381 1.2007 1.4897 1.24 2.555l-2.4968.1028c-.1069-.5959-.3374-1.023-.6917-1.2814-.3487-.2637-.8745-.3956-1.5774-.3956-.7254 0-1.2934.1398-1.7039.4193-.2643.1793-.3965.4192-.3965.7198 0 .2743.1237.5089.3712.704.3149.2479 1.0797.5063 2.2944.7753 1.2146.2689 2.1116.5484 2.6908.8385.5849.2847 1.0404.6776 1.3665 1.1786.3318.4957.4977 1.1101.4977 1.8431 0 .6645-.1968 1.2868-.5905 1.8669-.3936.58-.9503 1.0125-1.6702 1.2973-.7198.2794-1.6167.4192-2.6908.4192-1.5633 0-2.764-.3375-3.6019-1.0125-.8379-.6803-1.3383-1.6691-1.5014-2.9664Z"/></svg>
