<?xml version="1.0" encoding="UTF-8" standalone="no"?>
<svg
   viewBox="0 0 32 32"
   version="1.1"
   id="svg293"
   sodipodi:docname="typescript.svg"
   inkscape:version="1.2.2 (732a01da63, 2022-12-09)"
   xmlns:inkscape="http://www.inkscape.org/namespaces/inkscape"
   xmlns:sodipodi="http://sodipodi.sourceforge.net/DTD/sodipodi-0.dtd"
   xmlns="http://www.w3.org/2000/svg"
   xmlns:svg="http://www.w3.org/2000/svg">
  <defs
     id="defs297" />
  <sodipodi:namedview
     id="namedview295"
     pagecolor="#ffffff"
     bordercolor="#000000"
     borderopacity="0.25"
     inkscape:showpageshadow="2"
     inkscape:pageopacity="0.0"
     inkscape:pagecheckerboard="0"
     inkscape:deskcolor="#d1d1d1"
     showgrid="false"
     inkscape:zoom="8.0234374"
     inkscape:cx="133.04771"
     inkscape:cy="39.883155"
     inkscape:window-width="3840"
     inkscape:window-height="2066"
     inkscape:window-x="-11"
     inkscape:window-y="-11"
     inkscape:window-maximized="1"
     inkscape:current-layer="svg293" />
  <path
     d="M 19.33057,10.322644 H 15.451829 V 21.958869 H 12.599813 V 10.322644 H 8.7210711 V 8.2691926 H 19.21649 v 2.0534514 z m 8.784209,8.099725 c 0,-0.570404 -0.228161,-0.912645 -0.570403,-1.254887 -0.342242,-0.342242 -1.026726,-0.570404 -1.939371,-0.912646 -1.597129,-0.456322 -2.852016,-1.026725 -3.76466,-1.711209 -0.798565,-0.684484 -1.254888,-1.483049 -1.254888,-2.623854 0,-1.140806 0.456323,-2.053451 1.483048,-2.7379353 0.912645,-0.6844838 2.167533,-1.0267257 3.65058,-1.0267257 1.483049,0 2.737936,0.4563225 3.65058,1.254887 0.912646,0.798564 1.368969,1.82529 1.368969,2.966096 h -2.623855 c 0,-0.684484 -0.228161,-1.140806 -0.684484,-1.597128 -0.456323,-0.342242 -1.026726,-0.570404 -1.82529,-0.570404 -0.684484,0 -1.254887,0.114081 -1.711209,0.456323 -0.456323,0.342241 -0.570404,0.798565 -0.570404,1.254887 0,0.456322 0.228162,0.798564 0.684484,1.140805 0.456323,0.342243 1.140807,0.570404 2.281613,0.912646 1.483048,0.456323 2.623854,1.026725 3.422419,1.711209 0.798564,0.684485 1.140806,1.597129 1.140806,2.737936 0,1.140806 -0.456322,2.167531 -1.368967,2.737935 -0.912646,0.684483 -2.167533,1.026725 -3.650581,1.026725 -1.483048,0 -2.852016,-0.342242 -3.878741,-1.140806 -1.026726,-0.798565 -1.711209,-1.82529 -1.597129,-3.308338 h 2.737935 c 0,0.798564 0.228161,1.368968 0.798565,1.82529 0.456322,0.342242 1.254887,0.570403 2.053451,0.570403 0.798564,0 1.368967,-0.11408 1.711209,-0.456322 0.228162,-0.342242 0.456323,-0.798565 0.456323,-1.254887 z"
     fill="#529bba"
     id="path291"
     style="stroke-width:1.1408" />
  <g
     id="g394"
     transform="matrix(1.1408063,0,0,1.1408063,-4.7691609,-2.6015963)">
    <g
       aria-label="g"
       id="text342"
       style="font-style:italic;font-size:18.6667px;font-family:Roboto;-inkscape-font-specification:'Roboto Italic';fill:#e04e39">
      <path
         d="m 13.563656,15.930219 q 0,0.437501 -0.10026,0.647136 -0.100261,0.209636 -0.246094,0.209636 h -0.957033 q 0.200521,0.218751 0.282552,0.501303 0.09115,0.273438 0.09115,0.57422 0,0.710939 -0.236979,1.266929 -0.23698,0.546876 -0.683595,0.929689 -0.437501,0.373699 -1.066409,0.57422 -0.619792,0.191407 -1.3854187,0.191407 -0.3919278,0 -0.7473972,-0.09115 -0.3554694,-0.100261 -0.546876,-0.227865 -0.1093752,0.11849 -0.2005212,0.282552 -0.082031,0.164063 -0.082031,0.364584 0,0.264324 0.227865,0.437501 0.2369796,0.164063 0.6562512,0.182292 l 1.9778679,0.07292 q 0.692709,0.02734 1.230471,0.200521 0.546876,0.164063 0.91146,0.473959 0.373698,0.300782 0.565105,0.729168 0.200521,0.428387 0.200521,0.975263 0,0.601563 -0.264323,1.13021 -0.264324,0.537761 -0.79297,0.929689 -0.528647,0.391928 -1.330732,0.619793 -0.79297,0.227865 -1.8593779,0.227865 -1.0390644,0 -1.777347,-0.164063 Q 6.7003627,26.803936 6.2264035,26.512269 5.761559,26.220602 5.5428086,25.810445 5.3331728,25.409403 5.3331728,24.926329 q 0,-0.300782 0.072917,-0.57422 0.082031,-0.273438 0.227865,-0.528647 0.1549482,-0.246094 0.3736985,-0.473959 0.2187504,-0.227865 0.501303,-0.437501 -0.3919278,-0.209636 -0.6106781,-0.565105 -0.2096358,-0.364584 -0.2096358,-0.79297 0,-0.537762 0.2460942,-0.975262 0.2460941,-0.446616 0.6380219,-0.802085 -0.319011,-0.319011 -0.5104176,-0.765626 -0.1914065,-0.446616 -0.1914065,-1.111982 0,-0.710938 0.2460941,-1.266929 0.2552088,-0.565105 0.7018242,-0.947918 0.4466154,-0.391928 1.0664082,-0.592449 0.6197928,-0.209636 1.36719,-0.209636 0.3828132,0 0.729168,0.04557 0.3554691,0.04557 0.6562511,0.127604 h 2.579432 q 0.154948,0 0.246094,0.200521 0.10026,0.200522 0.10026,0.674481 z m -2.944015,1.92318 q 0,-0.656251 -0.364584,-1.020835 -0.3645843,-0.364584 -1.0299501,-0.364584 -0.3372402,0 -0.592449,0.11849 -0.2552088,0.109375 -0.4283862,0.309896 -0.1640628,0.191407 -0.2460942,0.45573 -0.082031,0.255209 -0.082031,0.537762 0,0.619793 0.364584,0.984377 0.364584,0.355469 1.0117206,0.355469 0.3463548,0 0.6015636,-0.109375 0.2552083,-0.109375 0.4192713,-0.300782 0.173177,-0.191407 0.255209,-0.437501 0.09115,-0.255209 0.09115,-0.528647 z m 0.537761,6.489595 q 0,-0.410157 -0.328126,-0.628907 -0.328125,-0.21875 -0.9023449,-0.23698 l -1.6315134,-0.04557 q -0.2369796,0.173178 -0.3828132,0.337241 -0.136719,0.154948 -0.227865,0.300781 -0.082031,0.145834 -0.1093752,0.282553 -0.027344,0.136719 -0.027344,0.282553 0,0.45573 0.45573,0.692709 0.4648446,0.23698 1.3033878,0.23698 0.5195322,0 0.8750019,-0.109375 0.355469,-0.100261 0.57422,-0.273438 0.21875,-0.173178 0.309896,-0.391928 0.09115,-0.209636 0.09115,-0.446616 z"
         style="font-style:normal;font-weight:bold;font-family:Calibri;-inkscape-font-specification:'Calibri Bold'"
         id="path528" />
    </g>
  </g>
</svg>
