<svg xmlns="http://www.w3.org/2000/svg" fill="none" viewBox="0 0 200 200"><g clip-path="url(#a)"><circle cx="100" cy="100" r="100" fill="#E04E39"/><path fill="#fff" d="M61 110a9 9 0 0 1-6-15l60-63a9 9 0 1 1 13 13l-60 62a9 9 0 0 1-7 3Zm40 2a9 9 0 0 1-7-15l48-49a9 9 0 0 1 13 12l-48 49a9 9 0 0 1-6 3Zm-20 62a9 9 0 0 1-8-9c-1-2 0-4 2-6l83-86a9 9 0 0 1 13 12l-83 86a9 9 0 0 1-7 3Zm-26-15a9 9 0 0 1-6-15l23-24a9 9 0 0 1 12 13l-22 23a9 9 0 0 1-7 3ZM37 91a9 9 0 0 1-6-15l22-24a9 9 0 0 1 13 13L44 88a9 9 0 0 1-7 3Zm117 51a9 9 0 0 1-6-15l10-11a9 9 0 0 1 13 12l-11 11a9 9 0 0 1-6 3Zm-21 22a9 9 0 1 1-18 0 9 9 0 0 1 18 0Zm-85-40a9 9 0 1 1-18 0 9 9 0 0 1 18 0Zm42-87a9 9 0 1 1-18 0 9 9 0 0 1 18 0Z"/></g><defs><clipPath id="a"><path fill="#fff" d="M0 0h200v200H0z"/></clipPath></defs></svg>
