<svg xmlns="http://www.w3.org/2000/svg" fill="none" viewBox="0 0 32 32"><path fill="#007DF6" fill-rule="evenodd" d="M7.18854 17.2146c.32052.3092.74997.482 1.19685.4814.23054.0003.4586-.0456.6709-.1348.21231-.0893.40431-.2201.56454-.3848L21.2309 5.27655c.1583-.16086.2831-.35119.3671-.56006.0841-.20887.1257-.43217.1226-.65708-.0031-.2249-.0508-.44699-.1406-.6535-.0897-.20652-.2197-.3934-.3823-.54992-.1627-.15651-.3549-.27958-.5656-.36214-.2107-.08256-.4357-.12298-.6622-.11895-.2264.00404-.4498.05245-.6574.14247-.2076.09001-.3952.21985-.5521.38206L7.15013 14.7993c-.31741.3254-.49169.7626-.48449 1.2156.0072.4529.1953.8845.5229 1.1997Zm14.51476-4.2098c-3.0694.0994-5.7504 1.7358-7.2984 4.1645-.009-.0193-.0178-.0387-.0262-.0584-.1313-.3079-.1683-.6475-.1066-.9763.0618-.3287.2197-.6322.4539-.8724l9.1696-9.39862c.3186-.3143.7487-.49191 1.1979-.49468.4491-.00277.8814.16953 1.2039.47987.3226.31035.5097.73397.5211 1.17984.0115.44587-.1537.8784-.4599 1.20465l-4.6553 4.77154Zm-8.5402 7.2807c-.0986.5113-.1539 1.038-.1621 1.5762-.0543.0816-.1159.159-.1845.2311l-4.37254 4.4819c-.16022.1646-.3522.2954-.56447.3846-.21227.0892-.44047.135-.67097.1347-.44682.0006-.87621-.1721-1.19666-.4814-.16225-.156-.29196-.3423-.38171-.5481-.08975-.2059-.13778-.4273-.14135-.6516-.00356-.2243.0374-.4471.12056-.6556.08316-.2086.20688-.3989.36409-.5599l4.37235-4.4817c.3189-.3187.7514-.4998 1.2039-.5041.4524-.0042.8882.1687 1.2132.4813.1756.169.3111.3713.4002.5926Zm.2341 4.3667c.3597 1.1682.9508 2.235 1.7199 3.1468l-1.6405 1.6815c-.1602.1646-.3522.2954-.5645.3847-.2122.0892-.4404.1351-.671.1348-.4468.0006-.8761-.1722-1.1964-.4816-.3277-.3151-.5158-.7467-.5231-1.1996-.0073-.453.1669-.8902.4843-1.2156l2.3913-2.451Zm14.2304-9.6761c-.9294-.7456-2.0099-1.3106-3.1883-1.6416l2.6053-2.6703c.319-.3186.7515-.4997 1.2038-.5039.4524-.0042.8883.1688 1.2131.4814.3249.3127.5127.7398.5228 1.189.01.4492-.1586.8841-.4692 1.2108l-1.8875 1.9346ZM2.77006 13.8425c.28166.1853.61204.2842.9499.2842.23052.0002.45872-.0456.67099-.1349.21227-.0892.40424-.2201.56446-.3847l4.37255-4.48165c.31256-.32629.48274-.76196.4735-1.21221-.00924-.45026-.19714-.87868-.52283-1.19206-.32569-.31337-.76281-.48636-1.21627-.48131-.45346.00505-.88657.18772-1.2051.50827L2.48471 11.23c-.2351.241-.39353.5454-.45552.8752-.06198.3299-.02477.6705.10698.9795.13176.3089.35222.5725.63389.7578Zm2.84534 7.2861c.08536-.2093.12808-.4334.12568-.6592-.00479-.4499-.18812-.8798-.51018-1.1962-.32206-.3165-.75683-.494-1.2099-.494s-.88785.1775-1.20991.494c-.32205.3164-.50538.7463-.51017 1.1962-.00241.2258.04031.4499.12568.6592.08536.2094.21168.3998.37164.5604.15996.1605.3504.288.56028.375.20988.0869.43505.1317.66248.1317.22742 0 .45259-.0448.66248-.1317.20988-.087.40031-.2145.56027-.375.15997-.1606.28628-.351.37165-.5604Zm8.1647-16.76649c.0864-.20723.1309-.42934.1309-.65365 0-.33788-.1008-.66818-.2898-.94913-.189-.28096-.4577-.49994-.772-.62926-.3143-.12932-.6602-.16316-.9939-.09725-.3337.0659-.6402.2286-.8808.46752-.2406.23892-.4044.54332-.4708.87471-.0664.33139-.0323.67488.0979.98703.1302.31216.3508.57895.6337.76664.2829.18769.6155.28786.9557.28782.2259 0 .4495-.04418.6582-.13002s.3983-.21166.558-.37027c.1597-.15861.2864-.3469.3729-.55414Z" clip-rule="evenodd"/><path fill="#007DF6" d="M18.1099 25.88v-5.6203H16v-1.1443h5.6508v1.1443h-2.1051V25.88h-1.4358ZM22.2183 23.679l1.3969-.1292c.0841.446.2538.7736.5093.9828.2587.2092.6063.3138 1.0428.3138.4624 0 .8101-.0923 1.0429-.2769.236-.1876.3541-.406.3541-.6552 0-.16-.0502-.2953-.1504-.4061-.097-.1138-.2684-.2122-.5141-.2953-.1682-.0554-.5514-.1538-1.1496-.2953-.7696-.1815-1.3096-.4045-1.62-.6691-.4366-.3722-.6549-.826-.6549-1.3612 0-.3446.1019-.666.3056-.9644.207-.3015.5029-.5307.8877-.6876.388-.1569.8552-.2353 1.4017-.2353.8925 0 1.5635.1861 2.013.5583.4527.3723.6903.8691.713 1.4905l-1.4358.06c-.0614-.3476-.194-.5968-.3977-.7476-.2005-.1538-.5028-.2307-.907-.2307-.4172 0-.7438.0815-.9798.2446-.152.1046-.228.2445-.228.4199 0 .16.0712.2968.2134.4107.1811.1446.6209.2953 1.3194.4522.6984.1569 1.2142.3199 1.5473.4891.3362.1661.5982.3953.7857.6875.1908.2892.2862.6476.2862 1.0752 0 .3876-.1132.7506-.3395 1.089-.2264.3384-.5465.5906-.9604.7567-.4139.1631-.9297.2446-1.5473.2446-.899 0-1.5893-.1969-2.0712-.5906-.4818-.3969-.7696-.9737-.8633-1.7304Z"/></svg>