<svg xmlns="http://www.w3.org/2000/svg" viewBox="0 0 32 32"><path fill="#e04e39" d="M9.948 17.355a1.378 1.356 0 0 1-.919-2.26L18.215 5.6a1.407 1.385 0 1 1 1.99 1.96l-9.186 9.342a1.378 1.356 0 0 1-1.071.452zm6.124.302A1.378 1.356 0 0 1 15 15.397l7.35-7.384a1.378 1.356 0 0 1 1.99 1.808l-7.35 7.384a1.378 1.356 0 0 1-.918.452zm-3.062 9.342a1.378 1.356 0 0 1-1.225-1.356c-.153-.301 0-.603.306-.904L24.8 11.779a1.378 1.356 0 0 1 1.99 1.809l-12.707 12.96a1.378 1.356 0 0 1-1.072.451zm-3.981-2.26a1.378 1.356 0 0 1-.919-2.26l3.522-3.617a1.378 1.356 0 0 1 1.837 1.96l-3.368 3.465a1.378 1.356 0 0 1-1.072.452ZM6.273 14.492a1.378 1.356 0 0 1-.919-2.26l3.369-3.617a1.407 1.385 0 0 1 1.99 1.96L7.345 14.04a1.378 1.356 0 0 1-1.072.452zm17.914 7.685a1.378 1.356 0 0 1-.919-2.26l1.531-1.658a1.378 1.356 0 0 1 1.99 1.809l-1.684 1.657a1.378 1.356 0 0 1-.918.452zm-3.216 3.315a1.378 1.356 0 1 1-2.756 0 1.378 1.356 0 0 1 2.756 0zM7.957 19.465a1.378 1.356 0 1 1-2.756 0 1.378 1.356 0 0 1 2.756 0zm6.43-13.11a1.378 1.356 0 1 1-2.755 0 1.378 1.356 0 0 1 2.756 0z"/></svg>
