<svg xmlns="http://www.w3.org/2000/svg" fill="none" viewBox="0 0 32 32"><g clip-path="url(#a)"><path fill="#E04E39" fill-rule="evenodd" d="M8.38539 17.696c-.44688.0006-.87633-.1722-1.19685-.4814-.3276-.3152-.5157-.7468-.5229-1.1997-.0072-.453.16708-.8902.48449-1.2156L18.7604 2.89943c.1569-.16221.3445-.29205.5521-.38206.2076-.09002.431-.13843.6574-.14247.2265-.00403.4515.03639.6622.11895s.4029.20563.5656.36214c.1626.15652.2926.3434.3823.54992.0898.20651.1375.4286.1406.6535.0031.22491-.0385.44821-.1226.65708-.084.20887-.2088.3992-.3671.56006L9.62083 17.1764c-.16023.1647-.35223.2955-.56454.3848-.2123.0892-.44036.1351-.6709.1348Zm3.98531 1.7141c-.2506-.1318-.5325-.2012-.821-.1985-.4525.0043-.885.1854-1.2039.5041l-4.37235 4.4817c-.15721.161-.28093.3513-.36409.5599-.08316.2085-.12412.4313-.12056.6556.00357.2243.0516.4457.14135.6516.05245.1203.11855.2339.19683.3387.01723-1.5165 1.166-2.7852 2.67898-2.948l2.83944-.3054c.1517-.0163.3034-.0209.4538-.0143l.5715-.5858v-3.1396Zm7.9145-4.9518 6.0734-6.22504c.3062-.32625.4714-.75878.4599-1.20465-.0114-.44587-.1985-.86949-.5211-1.17984-.3225-.31034-.7548-.48264-1.2039-.47987-.4492.00277-.8793.18038-1.1979.49468L16.1819 13.77h2.1911c.7267 0 1.3931.2584 1.9122.6883Zm5.3491-1.1883c1.1139 0 2.2258.1109 3.2732.3942l.6076-.6227c.3106-.3267.4792-.7616.4692-1.2108-.0101-.4492-.1979-.8763-.5228-1.189-.3248-.3126-.7607-.4856-1.2131-.4814-.4523.0042-.8848.1853-1.2038.5039l-2.5896 2.6542c.3889-.033.7826-.0484 1.1793-.0484Zm-21.91434.8567c-.33786 0-.66824-.0989-.9499-.2842-.28167-.1853-.50213-.4489-.63389-.7578-.13175-.309-.16896-.6496-.10698-.9795.06199-.3298.22042-.6342.45552-.8752l4.37255-4.48186c.31853-.32055.75164-.50322 1.2051-.50827.45346-.00505.89058.16794 1.21627.48131.32569.31338.51359.7418.52283 1.19206.00924.45025-.16094.88592-.4735 1.21221L4.95541 13.6071c-.16022.1646-.35219.2955-.56446.3847-.21227.0893-.44047.1351-.67099.1349Zm2.02112 6.3427c.0024.2258-.04032.4499-.12568.6592-.08537.2094-.21168.3998-.37165.5604-.15996.1605-.35039.288-.56027.375-.20989.0869-.43506.1317-.66248.1317-.22743 0-.4526-.0448-.66248-.1317-.20988-.087-.40032-.2145-.56028-.375-.15996-.1606-.28628-.351-.37164-.5604-.08537-.2093-.12809-.4334-.12568-.6592.00479-.4499.18812-.8798.51017-1.1962.32206-.3165.75684-.494 1.20991-.494.45307 0 .88784.1775 1.2099.494.32206.3164.50539.7463.51018 1.1962ZM13.911 3.70846c0 .22431-.0445.44642-.1309.65365-.0865.20724-.2132.39553-.3729.55414-.1597.15861-.3493.28443-.558.37027-.2087.08584-.4323.13002-.6582.13002-.3402.00004-.6728-.10013-.9557-.28782-.2829-.18769-.5035-.45448-.6337-.76664-.1302-.31215-.1643-.65564-.0979-.98703.0664-.33139.2302-.63579.4708-.87471.2406-.23892.5471-.40162.8808-.46752.3337-.06591.6796-.03207.9939.09725s.583.3483.772.62926c.189.28095.2898.61125.2898.94913Z" clip-rule="evenodd"/><path fill="#FFEF61" d="M15.2565 17.1978h3.0023v8.8567c0 1.158-.1086 2.0488-.3257 2.6723-.2917.8144-.821 1.4698-1.5876 1.9661-.7667.4899-1.7777.7349-3.0329.7349-1.4723 0-2.6053-.385-3.39916-1.1549-.79383-.7762-1.19413-1.9119-1.20092-3.4071l2.83948-.3055c.0339.8017.1594 1.368.3765 1.6989.3257.5026.821.7539 1.4859.7539.6717 0 1.1466-.1781 1.4248-.5344.2782-.3627.4173-1.1103.4173-2.2428v-9.0381ZM19.6577 26.8459l2.982-.2719c.1795.9386.5419 1.628 1.0872 2.0682.5523.4402 1.2943.6603 2.2262.6603.9871 0 1.7292-.1942 2.2262-.5826.5039-.3949.7559-.8545.7559-1.3788 0-.3366-.107-.6214-.321-.8545-.2071-.2395-.573-.4466-1.0976-.6214-.3589-.1165-1.1769-.3237-2.454-.6215-1.6428-.3819-2.7956-.8512-3.4583-1.4079-.9319-.7833-1.3978-1.7381-1.3978-2.8644 0-.725.2174-1.4015.6523-2.0294.4418-.6344 1.0734-1.1167 1.8948-1.4468C23.582 17.1651 24.5794 17 25.746 17c1.9052 0 3.3376.3916 4.2971 1.1749.9664.7833 1.4737 1.8287 1.522 3.1363l-3.0648.1262c-.1312-.7314-.4142-1.2558-.8491-1.573-.428-.3236-1.0734-.4855-1.9362-.4855-.8905 0-1.5877.1716-2.0916.5147-.3244.2201-.4866.5146-.4866.8836 0 .3366.1518.6246.4555.8642.3866.3042 1.3254.6214 2.8164.9515 1.491.3302 2.592.6733 3.303 1.0293.7179.3495 1.277.8318 1.6774 1.4468.4073.6085.6109 1.3626.6109 2.2624 0 .8156-.2416 1.5795-.7248 2.2915-.4832.7121-1.1666 1.2429-2.0501 1.5925-.8836.3431-1.9846.5146-3.303.5146-1.919 0-3.3928-.4143-4.4213-1.2429-1.0285-.835-1.6429-2.0488-1.8431-3.6412Z"/></g><defs><clipPath id="a"><path fill="#fff" d="M0 0h32v32H0z"/></clipPath></defs></svg>
