<svg xmlns="http://www.w3.org/2000/svg" fill="none" viewBox="0 0 32 32"><path fill="#E04E39" d="M8.38539 17.696c-.44688.0006-.87633-.1722-1.19685-.4814-.3276-.3152-.5157-.7468-.5229-1.1997-.0072-.453.16707-.8902.48449-1.2156L18.7604 2.89943c.1569-.16221.3445-.29205.5521-.38206.2076-.09002.431-.13843.6574-.14247.2265-.00403.4515.03639.6622.11895s.4029.20563.5656.36214c.1626.15652.2926.3434.3823.54992.0898.20651.1375.4286.1406.6535.0031.22491-.0385.44821-.1226.65708-.084.20887-.2088.3992-.3671.56006L9.62083 17.1764c-.16023.1647-.35223.2955-.56454.3848-.2123.0892-.44036.1351-.6709.1348Zm7.57191.4539c-.3368-.0001-.6661-.0987-.9468-.2835-.2807-.1847-.5004-.4475-.6318-.7555-.1313-.3079-.1684-.6475-.1066-.9763.0618-.3287.2197-.6322.4539-.8724l9.1696-9.39862c.3186-.3143.7487-.49191 1.1979-.49468.4491-.00277.8814.16953 1.2039.47987.3226.31035.5097.73397.5211 1.17984.0115.44587-.1537.8784-.4599 1.20465l-9.1697 9.39864c-.1597.1641-.3511.2945-.5627.3835-.2116.089-.4391.1348-.6689.1345ZM12.2411 30c-.4468.0006-.8761-.1722-1.1964-.4816-.3277-.3151-.5158-.7467-.5231-1.1996-.0073-.453.1669-.8902.4843-1.2156l16.0387-16.439c.3189-.3186.7515-.4997 1.2038-.5039.4524-.0042.8883.1688 1.2131.4814.3249.3127.5127.7398.5228 1.189.01.4492-.1586.8841-.4692 1.2108l-16.0385 16.439c-.1602.1646-.3522.2954-.5645.3847-.2122.0892-.4404.1351-.671.1348Zm-5.03258-2.906c-.44682.0006-.87621-.1721-1.19666-.4814-.16225-.156-.29196-.3423-.38171-.5481-.08975-.2059-.13778-.4273-.14135-.6516-.00356-.2243.0374-.4471.12056-.6556.08316-.2086.20688-.3989.3641-.5599l4.37234-4.4817c.3189-.3187.7514-.4998 1.2039-.5041.4524-.0042.8882.1687 1.2132.4813.3249.3127.5128.7398.5228 1.189.01.4492-.1585.8843-.4692 1.2109l-4.37254 4.4819c-.16022.1646-.3522.2954-.56447.3846-.21227.0892-.44047.135-.67097.1347ZM3.71996 14.1267c-.33786 0-.66824-.0989-.9499-.2842-.28167-.1853-.50213-.4489-.63389-.7578-.13175-.309-.16896-.6496-.10698-.9795.06199-.3298.22042-.6342.45552-.8752l4.37255-4.48186c.31853-.32055.75164-.50322 1.2051-.50827.45346-.00505.89058.16794 1.21627.48131.32569.31338.51359.7418.52283 1.19206.00924.45025-.16094.88592-.4735 1.21221L4.95541 13.6071c-.16022.1646-.35219.2955-.56446.3847-.21227.0893-.44047.1351-.67099.1349ZM26.21 23.8857c-.4469.0005-.8763-.1722-1.1967-.4815-.3276-.3152-.5157-.7468-.5229-1.1997-.0072-.453.1671-.8902.4845-1.2156l2.0699-2.1215c.1571-.1612.3447-.2899.552-.3791.2073-.0891.4302-.1368.6561-.1403.2258-.0035.4502.0371.6602.1197.21.0826.4016.2054.5638.3615.3276.3152.5157.7468.5229 1.1998.0072.4529-.1671.8901-.4845 1.2155l-2.0699 2.1215c-.1602.1646-.3522.2955-.5645.3847-.2122.0893-.4404.1353-.6709.135Zm-4.0306 4.2353c0 .2244-.0445.4465-.1309.6537-.0865.2073-.2132.3956-.3729.5542-.1597.1586-.3494.2844-.5581.3702-.2087.0859-.4323.13-.6582.13-.3402 0-.6727-.1002-.9556-.2879-.2828-.1877-.5032-.4545-.6334-.7666-.1301-.3122-.1641-.6556-.0978-.9869.0664-.3313.2303-.6357.4708-.8745.2406-.2389.547-.4015.8807-.4674.3336-.0659.6794-.0321.9937.0972s.5829.3482.7719.6291c.189.2809.2898.6111.2898.9489ZM5.74108 20.4694c.0024.2258-.04032.4499-.12568.6592-.08537.2094-.21168.3998-.37165.5604-.15996.1605-.35039.288-.56027.375-.20989.0869-.43506.1317-.66248.1317-.22743 0-.4526-.0448-.66248-.1317-.20988-.087-.40032-.2145-.56028-.375-.15996-.1606-.28628-.351-.37164-.5604-.08537-.2093-.12809-.4334-.12568-.6592.00479-.4499.18812-.8798.51017-1.1962.32206-.3165.75684-.494 1.20991-.494.45307 0 .88784.1775 1.2099.494.32206.3164.50539.7463.51018 1.1962ZM13.911 3.70846c0 .22431-.0445.44642-.1309.65365-.0865.20724-.2132.39553-.3729.55414-.1597.15861-.3493.28443-.558.37027-.2087.08584-.4323.13002-.6582.13002-.3402.00004-.6728-.10013-.9557-.28782-.2829-.18769-.5035-.45448-.6337-.76664-.1302-.31215-.1643-.65564-.0979-.98703.0664-.33139.2302-.63579.4708-.87471.2406-.23892.5471-.40162.8808-.46752.3337-.06591.6796-.03207.9939.09725s.583.3483.772.62926c.189.28095.2898.61125.2898.94913Z"/></svg>