<svg xmlns="http://www.w3.org/2000/svg" fill="none" viewBox="0 0 32 32"><path fill="#E04E39" fill-rule="evenodd" d="M7.18854 17.2146c.32052.3092.74997.482 1.19685.4814.23054.0003.4586-.0456.6709-.1348.21231-.0893.40431-.2201.56454-.3848L21.2309 5.27655c.1583-.16086.2831-.35119.3671-.56006.0841-.20887.1257-.43217.1226-.65708-.0031-.2249-.0508-.44699-.1406-.6535-.0897-.20652-.2197-.3934-.3823-.54992-.1627-.15651-.3549-.27958-.5656-.36214-.2107-.08256-.4357-.12298-.6622-.11895-.2264.00404-.4498.05245-.6574.14247-.2076.09001-.3952.21985-.5521.38206L7.15013 14.7993c-.31741.3254-.49169.7626-.48449 1.2156.0072.4529.1953.8845.5229 1.1997Zm13.15496-2.8161c-2.0241.6244-3.7435 1.9437-4.8794 3.6793-.16-.0478-.3129-.1188-.4536-.2114-.2807-.1847-.5004-.4475-.6318-.7555-.1313-.3079-.1683-.6475-.1066-.9763.0618-.3287.2197-.6322.4539-.8724l9.1696-9.39862c.3186-.3143.7487-.49191 1.1979-.49468.4491-.00277.8814.16953 1.2039.47987.3226.31035.5097.73397.5211 1.17984.0115.44587-.1537.8784-.4599 1.20465l-6.0151 6.16524Zm-6.2907 9.5817-3.0469 3.123c-.3174.3254-.4916.7626-.4843 1.2156.0073.4529.1954.8845.5231 1.1996.3203.3094.7496.4822 1.1964.4816.2306.0003.4588-.0456.671-.1348.2123-.0893.4043-.2201.5645-.3847l1.8046-1.8497c-.6543-1.0883-1.085-2.3263-1.2284-3.6506Zm13.3864-8.811c-1.1024-.6263-2.3501-1.0266-3.68-1.1376l3.2854-3.3674c.319-.3186.7515-.4997 1.2038-.5039.4524-.0042.8883.1688 1.2131.4814.3249.3127.5127.7398.5228 1.189.01.4492-.1586.8841-.4692 1.2108l-2.0759 2.1277ZM6.01186 26.6126c.32045.3093.74984.482 1.19666.4814.2305.0003.4587-.0455.67097-.1347.21227-.0892.40425-.22.56447-.3846l4.37254-4.4819c.3107-.3266.4792-.7617.4692-1.2109-.01-.4491-.1979-.8763-.5228-1.189-.325-.3126-.7608-.4855-1.2132-.4813-.4525.0043-.885.1854-1.2039.5041l-4.37235 4.4817c-.15721.161-.28093.3513-.36409.5599-.08316.2085-.12412.4313-.12056.6556.00357.2243.0516.4457.14135.6516.08975.2058.21946.3921.38171.5481Zm-3.2418-12.7701c.28166.1853.61204.2842.9499.2842.23052.0002.45872-.0456.67099-.1349.21227-.0892.40424-.2201.56446-.3847l4.37255-4.48165c.31256-.32629.48274-.76196.4735-1.21221-.00924-.45026-.19714-.87868-.52283-1.19206-.32569-.31337-.76281-.48636-1.21627-.48131-.45346.00505-.88657.18772-1.2051.50827L2.48471 11.23c-.2351.241-.39353.5454-.45552.8752-.06198.3299-.02477.6705.10698.9795.13176.3089.35222.5725.63389.7578Zm2.84534 7.2861c.08536-.2093.12808-.4334.12568-.6592-.00479-.4499-.18812-.8798-.51018-1.1962-.32206-.3165-.75683-.494-1.2099-.494s-.88785.1775-1.20991.494c-.32205.3164-.50538.7463-.51017 1.1962-.00241.2258.04031.4499.12568.6592.08536.2094.21168.3998.37164.5604.15996.1605.3504.288.56028.375.20988.0869.43505.1317.66248.1317.22742 0 .45259-.0448.66248-.1317.20988-.087.40031-.2145.56027-.375.15997-.1606.28628-.351.37165-.5604Zm8.1647-16.76649c.0864-.20723.1309-.42934.1309-.65365 0-.33788-.1008-.66818-.2898-.94913-.189-.28096-.4577-.49994-.772-.62926-.3143-.12932-.6602-.16316-.9939-.09725-.3337.0659-.6402.2286-.8808.46752-.2406.23892-.4044.54332-.4708.87471-.0664.33139-.0323.67488.0979.98703.1302.31216.3508.57895.6337.76664.2829.18769.6155.28786.9557.28782.2259 0 .4495-.04418.6582-.13002s.3983-.21166.558-.37027c.1597-.15861.2864-.3469.3729-.55414Z" clip-rule="evenodd"/><path fill="#E04E39" d="M19.9831 19.1154h1.3687v4.2821c0 .5599-.0495.9905-.1485 1.292-.133.3938-.3743.7106-.7238.9506-.3495.2368-.8103.3553-1.3825.3553-.6712 0-1.1877-.1861-1.5496-.5584-.3618-.3753-.5443-.9244-.5474-1.6473l1.2944-.1476c.0155.3876.0727.6613.1716.8213.1485.243.3743.3645.6774.3645.3062 0 .5227-.0861.6495-.2584.1268-.1753.1902-.5368.1902-1.0843v-4.3698ZM22.4698 23.679l1.3362-.1292c.0804.446.2428.7736.4871.9828.2475.2092.5799.3138.9975.3138.4423 0 .7748-.0923.9975-.2769.2257-.1876.3386-.406.3386-.6552 0-.16-.0479-.2953-.1438-.4061-.0928-.1138-.2567-.2122-.4918-.2953-.1608-.0554-.5273-.1538-1.0995-.2953-.7361-.1815-1.2526-.4045-1.5496-.6691-.4175-.3722-.6263-.826-.6263-1.3612 0-.3446.0975-.666.2923-.9644.198-.3015.481-.5307.849-.6876.3712-.1569.8181-.2353 1.3408-.2353.8537 0 1.4954.1861 1.9254.5583.433.3723.6603.8691.6819 1.4905l-1.3732.06c-.0588-.3476-.1856-.5968-.3804-.7476-.1918-.1538-.481-.2307-.8676-.2307-.399 0-.7114.0815-.9372.2446-.1453.1046-.218.2445-.218.4199 0 .16.068.2968.2041.4107.1732.1446.5939.2953 1.2619.4522.6681.1569 1.1614.3199 1.48.4891.3217.1661.5722.3953.7516.6875.1825.2892.2737.6476.2737 1.0752 0 .3876-.1083.7506-.3248 1.089-.2165.3384-.5227.5906-.9186.7567-.3959.1631-.8892.2446-1.4799.2446-.8599 0-1.5202-.1969-1.981-.5906-.4609-.3969-.7362-.9737-.8259-1.7304Z"/></svg>
