<svg xmlns="http://www.w3.org/2000/svg" viewBox="0 0 32 32">
   <path
      fill="#e04e39"
      d="M 9.9476863,17.355222 A 1.3779619,1.3561993 0 0 1 9.0290443,15.094888 L 18.215459,5.6014911 a 1.4074179,1.3851902 0 1 1 1.990389,1.9589537 l -9.186416,9.3427082 a 1.3779619,1.3561993 0 0 1 -1.0717457,0.452069 z m 6.1242757,0.301377 a 1.3779619,1.3561993 0 0 1 -1.07175,-2.260332 l 7.349131,-7.3837542 a 1.3779619,1.3561993 0 0 1 1.990389,1.808265 l -7.34913,7.3837532 a 1.3779619,1.3561993 0 0 1 -0.91864,0.452068 z m -3.06214,9.342708 a 1.3779619,1.3561993 0 0 1 -1.224854,-1.3562 c -0.153115,-0.301377 0,-0.602755 0.306211,-0.904133 L 24.799055,11.779735 a 1.3779619,1.3561993 0 0 1 1.990389,1.808267 L 14.081568,26.547238 a 1.3779619,1.3561993 0 0 1 -1.071746,0.452069 z M 9.0290443,24.738974 A 1.3779619,1.3561993 0 0 1 8.1104013,22.47864 l 3.5214617,-3.61653 a 1.3779619,1.3561993 0 0 1 1.83728,1.958954 l -3.368352,3.465844 A 1.3779619,1.3561993 0 0 1 9.0290443,24.738974 Z M 6.2731195,14.492134 A 1.3779619,1.3561993 0 0 1 5.354478,12.2318 L 8.7228293,8.6152658 a 1.4074185,1.3851906 0 0 1 1.9903877,1.9589562 l -3.3683487,3.465843 a 1.3779619,1.3561993 0 0 1 -1.0717488,0.452069 z m 17.9135065,7.68513 a 1.3779619,1.3561993 0 0 1 -0.91864,-2.260334 l 1.531069,-1.657576 a 1.3779619,1.3561993 0 0 1 1.990389,1.808268 l -1.684178,1.657575 a 1.3779619,1.3561993 0 0 1 -0.91864,0.452067 z m -3.215245,3.315152 a 1.3779619,1.3561993 0 1 1 -2.755922,0 1.3779619,1.3561993 0 0 1 2.755922,0 z M 7.9572953,19.464865 a 1.3779623,1.3561998 0 1 1 -2.7559245,0 1.3779623,1.3561998 0 0 1 2.7559245,0 z M 14.387786,6.354934 a 1.3779621,1.3561996 0 1 1 -2.755923,0 1.3779621,1.3561996 0 0 1 2.755923,0 z"
   />
</svg>
