<svg xmlns="http://www.w3.org/2000/svg" viewBox="0 0 32 32"><path fill="#e04e39" d="M10.87 16.381q0 .524-.121.776-.12.252-.295.252H9.307q.24.261.338.6.11.328.11.689 0 .851-.284 1.52-.284.655-.82 1.114-.525.448-1.278.689-.744.229-1.662.229-.47 0-.896-.11-.427-.12-.656-.273-.132.143-.24.34-.099.196-.099.436 0 .318.273.525.285.197.787.219l2.371.087q.831.032 1.475.24.657.198 1.094.568.448.361.677.876.24.513.24 1.169 0 .72-.315 1.355-.318.645-.951 1.115-.636.47-1.596.744-.95.272-2.23.272-1.246 0-2.13-.197-.876-.196-1.443-.545-.558-.35-.82-.842Q1 27.748 1 27.169q0-.361.089-.689.098-.328.272-.635.186-.294.448-.567.263-.274.601-.526-.469-.251-.731-.677-.252-.437-.252-.951 0-.644.295-1.17.295-.535.765-.961-.383-.383-.612-.919-.23-.534-.23-1.333 0-.851.296-1.52.306-.677.84-1.135.537-.47 1.28-.711.743-.252 1.639-.252.46 0 .875.055.426.055.786.154h3.093q.186 0 .295.24.12.24.12.809zm-3.531 2.306q0-.787-.436-1.224-.438-.438-1.235-.438-.406 0-.711.143-.306.132-.514.371-.196.23-.294.547-.099.306-.099.644 0 .744.437 1.181.437.426 1.213.426.415 0 .722-.132.306-.13.502-.36.208-.229.306-.525.109-.306.109-.633zm.645 7.783q0-.492-.393-.756-.393-.261-1.083-.283l-1.955-.055q-.285.207-.46.404-.164.186-.273.361-.098.175-.132.34-.031.163-.031.338 0 .546.545.83.558.285 1.564.285.623 0 1.05-.132.425-.12.687-.327.263-.208.372-.47.108-.252.108-.537z"/><path fill="#f1dd3f" d="M15.562 8.739H18.8v9.114c0 4.078-1.919 5.517-5.156 5.517-.72 0-1.8-.12-2.399-.36l.36-2.638c.48.24 1.08.36 1.679.36 1.319 0 2.278-.6 2.278-2.879zm6.116 11.033c.84.48 2.279.96 3.598.96 1.559 0 2.278-.6 2.278-1.56 0-.959-.72-1.439-2.398-2.038-2.398-.84-3.957-2.159-3.957-4.317 0-2.519 2.038-4.317 5.516-4.317 1.679 0 2.878.36 3.718.719l-.72 2.638c-.6-.24-1.559-.72-2.998-.72-1.439 0-2.159.6-2.159 1.44 0 .96.84 1.319 2.639 2.038 2.518.96 3.717 2.279 3.717 4.318 0 2.398-1.918 4.437-5.876 4.437-1.679 0-3.238-.48-4.077-.84z"/></svg>