<svg xmlns="http://www.w3.org/2000/svg" fill="none" viewBox="0 0 32 32"><path fill="#007DF6" fill-rule="evenodd" d="M7.18854 17.2146c.32052.3092.74997.482 1.19685.4814.23054.0003.4586-.0456.6709-.1348.21231-.0893.40431-.2201.56454-.3848L10 16.7878V15c0-1.6569 1.3431-3 3-3h1.6712l6.5597-6.72345c.1583-.16086.2831-.35119.3671-.56006.0841-.20887.1257-.43217.1226-.65708-.0031-.2249-.0508-.44699-.1406-.6535-.0897-.20652-.2197-.3934-.3823-.54992-.1627-.15651-.3549-.27958-.5656-.36214-.2107-.08256-.4357-.12298-.6622-.11895-.2264.00404-.4498.05245-.6574.14247-.2076.09001-.3952.21985-.5521.38206L7.15013 14.7993c-.31741.3254-.49169.7626-.48449 1.2156.0072.4529.1953.8845.5229 1.1997ZM22.6836 12h-4.7749l5.9869-6.13642c.3186-.3143.7487-.49191 1.1979-.49468.4491-.00277.8814.16953 1.2039.47987.3226.31035.5097.73397.5211 1.17984.0115.44587-.1537.8784-.4599 1.20465L22.6836 12Zm7.296 0h-4.2383l1.3033-1.3358c.319-.3186.7515-.4997 1.2038-.5039.4524-.0042.8883.1688 1.2131.4814.3249.3127.5127.7398.5228 1.189.0012.0567-.0004.1132-.0047.1693ZM10 20.0701v4.9096l-1.55604 1.595c-.16022.1646-.3522.2954-.56447.3846-.21227.0892-.44047.135-.67097.1347-.44682.0006-.87621-.1721-1.19666-.4814-.16225-.156-.29196-.3423-.38171-.5481-.08975-.2059-.13778-.4273-.14135-.6516-.00356-.2243.0374-.4471.12056-.6556.08316-.2086.20688-.3989.36409-.5599L10 20.0701Zm-7.22994-6.2276c.28166.1853.61204.2842.9499.2842.23052.0002.45872-.0456.67099-.1349.21227-.0892.40424-.2201.56446-.3847l4.37255-4.48165c.31256-.32629.48274-.76196.4735-1.21221-.00924-.45026-.19714-.87868-.52283-1.19206-.32569-.31337-.76281-.48636-1.21627-.48131-.45346.00505-.88657.18772-1.2051.50827L2.48471 11.23c-.2351.241-.39353.5454-.45552.8752-.06198.3299-.02477.6705.10698.9795.13176.3089.35222.5725.63389.7578Zm2.84534 7.2861c.08536-.2093.12808-.4334.12568-.6592-.00479-.4499-.18812-.8798-.51018-1.1962-.32206-.3165-.75683-.494-1.2099-.494s-.88785.1775-1.20991.494c-.32205.3164-.50538.7463-.51017 1.1962-.00241.2258.04031.4499.12568.6592.08536.2094.21168.3998.37164.5604.15996.1605.3504.288.56028.375.20988.0869.43505.1317.66248.1317.22742 0 .45259-.0448.66248-.1317.20988-.087.40031-.2145.56027-.375.15997-.1606.28628-.351.37165-.5604Zm8.1647-16.76649c.0864-.20723.1309-.42934.1309-.65365 0-.33788-.1008-.66818-.2898-.94913-.189-.28096-.4577-.49994-.772-.62926-.3143-.12932-.6602-.16316-.9939-.09725-.3337.0659-.6402.2286-.8808.46752-.2406.23892-.4044.54332-.4708.87471-.0664.33139-.0323.67488.0979.98703.1302.31216.3508.57895.6337.76664.2829.18769.6155.28786.9557.28782.2259 0 .4495-.04418.6582-.13002s.3983-.21166.558-.37027c.1597-.15861.2864-.3469.3729-.55414Z" clip-rule="evenodd"/><path fill="#1E1E1E" d="M15.5166 26.7943v-9.6348H12v-1.9617h9.4179v1.9617h-3.5084v9.6348h-2.3929ZM22.3638 23.0211l2.3282-.2215c.1401.7647.4231 1.3263.8488 1.6849.4312.3586 1.0105.5379 1.7381.5379.7707 0 1.35-.1582 1.7381-.4746.3934-.3217.5901-.6961.5901-1.1233 0-.2742-.0835-.5062-.2506-.6961-.1617-.1951-.4473-.3639-.8569-.5063-.2803-.0949-.9189-.2636-1.9159-.5062-1.2827-.3112-2.1827-.6935-2.7001-1.147-.7276-.6381-1.0914-1.416-1.0914-2.3336 0-.5906.1698-1.1417.5093-1.6532.345-.5168.8381-.9097 1.4794-1.1787.6467-.2689 1.4255-.4034 2.3363-.4034 1.4875 0 2.6058.3191 3.3549.9572.7545.6381 1.1506 1.4897 1.1884 2.555l-2.3929.1028c-.1024-.5959-.3234-1.023-.6629-1.2814-.3342-.2637-.8381-.3956-1.5117-.3956-.6953 0-1.2396.1398-1.633.4193-.2533.1793-.38.4192-.38.7198 0 .2743.1186.5089.3557.704.3018.2479 1.0348.5063 2.1989.7753 1.1641.2689 2.0237.5484 2.5788.8385.5605.2847.9971.6776 1.3096 1.1786.318.4957.477 1.1101.477 1.8431 0 .6645-.1886 1.2868-.5659 1.8669-.3772.58-.9108 1.0125-1.6006 1.2973-.6899.2794-1.5495.4192-2.5789.4192-1.4982 0-2.6488-.3375-3.4519-1.0125-.803-.6803-1.2826-1.6691-1.4389-2.9664Z"/></svg>
