<?xml version="1.0" encoding="utf-8"?>
<svg viewBox="-5 0 32 32" xmlns="http://www.w3.org/2000/svg">
  <path d="M 7.141 17.668 C 5.954 17.58 5.31 16.257 5.982 15.29 C 6.02 15.234 6.064 15.181 6.108 15.131 L 16.425 4.47 C 17.285 3.622 18.755 4.008 19.071 5.164 C 19.217 5.702 19.061 6.277 18.66 6.668 L 8.345 17.161 C 8.04 17.498 7.598 17.683 7.141 17.668 Z M 14.018 18.008 C 12.828 18.045 12.041 16.801 12.602 15.768 C 12.662 15.66 12.734 15.559 12.814 15.469 L 21.067 7.179 C 22.022 6.477 23.392 7.057 23.53 8.223 C 23.569 8.566 23.488 8.914 23.304 9.207 L 15.049 17.5 C 14.786 17.793 14.415 17.975 14.018 18.008 Z M 10.58 28.498 C 9.791 28.411 9.2 27.754 9.204 26.976 C 9.031 26.639 9.204 26.299 9.548 25.961 L 23.819 11.408 C 24.775 10.707 26.142 11.289 26.279 12.453 C 26.321 12.796 26.241 13.143 26.054 13.438 L 11.784 27.992 C 11.479 28.327 11.036 28.512 10.58 28.498 Z M 6.108 25.961 C 4.922 25.873 4.278 24.551 4.949 23.581 C 4.989 23.526 5.032 23.474 5.078 23.421 L 9.031 19.361 C 10.042 18.738 11.357 19.424 11.401 20.596 C 11.414 20.943 11.306 21.282 11.095 21.561 L 7.314 25.453 C 7.008 25.788 6.568 25.976 6.108 25.961 Z M 3.013 14.453 C 1.826 14.365 1.183 13.043 1.854 12.074 C 1.894 12.019 1.936 11.965 1.982 11.916 L 5.766 7.854 C 6.627 7.007 8.095 7.397 8.409 8.552 C 8.553 9.091 8.398 9.661 8 10.053 L 4.219 13.945 C 3.913 14.282 3.472 14.466 3.013 14.453 Z M 23.131 23.083 C 21.943 22.994 21.3 21.672 21.971 20.704 C 22.012 20.649 22.053 20.596 22.1 20.545 L 23.819 18.684 C 24.775 17.984 26.142 18.565 26.279 19.729 C 26.321 20.073 26.241 20.421 26.054 20.716 L 24.161 22.575 C 23.898 22.87 23.53 23.053 23.131 23.083 Z M 19.521 26.806 C 19.522 27.979 18.232 28.713 17.201 28.128 C 16.72 27.857 16.425 27.352 16.425 26.806 C 16.427 25.635 17.719 24.904 18.749 25.491 C 19.226 25.762 19.521 26.264 19.521 26.806 Z M 4.905 20.038 C 4.906 21.211 3.617 21.945 2.584 21.358 C 2.106 21.084 1.81 20.583 1.81 20.038 C 1.812 18.865 3.1 18.133 4.134 18.719 C 4.611 18.992 4.905 19.494 4.905 20.038 Z M 12.127 5.315 C 12.129 6.49 10.84 7.221 9.807 6.636 C 9.327 6.364 9.031 5.861 9.031 5.315 C 9.033 4.143 10.325 3.411 11.355 3.998 C 11.831 4.272 12.126 4.772 12.127 5.315 Z" style="fill: #007df6;"/>
  <ellipse style="stroke: rgb(0, 0, 0); fill: rgb(55, 55, 55);" cx="19.692" cy="20.237" rx="8.031" ry="8.031"/>
  <text style="fill: #519aba; font-family: Arial, sans-serif; font-size: 12.8px; font-weight: 700; text-anchor: middle; text-transform: capitalize; white-space: pre;" y="24.778" x="19.92">TS</text>
</svg>