<svg xmlns="http://www.w3.org/2000/svg" fill="none" viewBox="0 0 32 32"><g clip-path="url(#a)"><path fill="#007DF6" fill-rule="evenodd" d="M11.9702 14.7685H9.4434c-1.14586 0-2.15743.5749-2.76195 1.4521-.00939-.0679-.01471-.1366-.01581-.2057-.0072-.453.16708-.8902.48449-1.2156L18.7604 2.89943c.1569-.16221.3445-.29205.5521-.38206.2076-.09002.431-.13843.6574-.14247.2265-.00403.4515.03639.6622.11895s.4029.20563.5656.36214c.1626.15652.2926.3434.3823.54992.0898.20651.1375.4286.1406.6535.0031.22491-.0385.44821-.1226.65708-.084.20887-.2088.3992-.3671.56006l-9.2607 9.49195Zm8.0124 0h-4.7748l8.6878-8.90492c.3186-.3143.7487-.49191 1.1979-.49468.4491-.00277.8814.16953 1.2039.47987.3226.31035.5097.73397.5211 1.17984.0115.44587-.1537.8784-.4599 1.20465l-6.376 6.53524Zm7.8476 0h-4.79l4.0044-4.1043c.319-.3186.7515-.4997 1.2038-.5039.4524-.0042.8883.1688 1.2131.4814.3249.3127.5127.7398.5228 1.189.01.4492-.1586.8841-.4692 1.2108l-1.6849 1.727ZM7.50969 22.6227h2.75521v2.0855l-1.82094 1.8665c-.16022.1646-.3522.2954-.56447.3846-.21227.0892-.44047.135-.67097.1347-.44682.0006-.87621-.1721-1.19666-.4814-.16225-.156-.29196-.3423-.38171-.5481-.08975-.2059-.13778-.4273-.14135-.6516-.00356-.2243.0374-.4471.12056-.6556.08316-.2086.20688-.3989.36409-.5599l1.53624-1.5747Zm-4.73963-8.7802c.28166.1853.61204.2842.9499.2842.23052.0002.45872-.0456.67099-.1349.21227-.0892.40424-.2201.56446-.3847l4.37255-4.48165c.31256-.32629.48274-.76196.4735-1.21221-.00924-.45026-.19714-.87868-.52283-1.19206-.32569-.31337-.76281-.48636-1.21627-.48131-.45346.00505-.88657.18772-1.2051.50827L2.48471 11.23c-.2351.241-.39353.5454-.45552.8752-.06198.3299-.02477.6705.10698.9795.13176.3089.35222.5725.63389.7578Zm2.84534 7.2861c.08536-.2093.12808-.4334.12568-.6592-.00479-.4499-.18812-.8798-.51018-1.1962-.32206-.3165-.75683-.494-1.2099-.494s-.88785.1775-1.20991.494c-.32205.3164-.50538.7463-.51017 1.1962-.00241.2258.04031.4499.12568.6592.08536.2094.21168.3998.37164.5604.15996.1605.3504.288.56028.375.20988.0869.43505.1317.66248.1317.22742 0 .45259-.0448.66248-.1317.20988-.087.40031-.2145.56027-.375.15997-.1606.28628-.351.37165-.5604Zm8.1647-16.76649c.0864-.20723.1309-.42934.1309-.65365 0-.33788-.1008-.66818-.2898-.94913-.189-.28096-.4577-.49994-.772-.62926-.3143-.12932-.6602-.16316-.9939-.09725-.3337.0659-.6402.2286-.8808.46752-.2406.23892-.4044.54332-.4708.87471-.0664.33139-.0323.67488.0979.98703.1302.31216.3508.57895.6337.76664.2829.18769.6155.28786.9557.28782.2259 0 .4495-.04418.6582-.13002s.3983-.21166.558-.37027c.1597-.15861.2864-.3469.3729-.55414Z" clip-rule="evenodd"/><path fill="#D1F4FF" d="m19.7394 27.2403 2.8579-.2719c.172.9387.5193 1.6281 1.0419 2.0683.5293.4402 1.2405.6602 2.1336.6602.946 0 1.6572-.1942 2.1335-.5826.4829-.3948.7244-.8544.7244-1.3788 0-.3366-.1026-.6214-.3076-.8545-.1985-.2395-.5491-.4466-1.0519-.6214-.344-.1165-1.128-.3237-2.3518-.6215-1.5745-.3819-2.6793-.8512-3.3144-1.4079-.8931-.7833-1.3397-1.7381-1.3397-2.8645 0-.725.2084-1.4015.6252-2.0294.4234-.6344 1.0287-1.1167 1.816-1.4468.7938-.3301 1.7498-.4952 2.8678-.4952 1.8259 0 3.1986.3916 4.1182 1.1749.9261.7833 1.4124 1.8287 1.4587 3.1364l-2.9373.1262c-.1257-.7315-.3969-1.2558-.8137-1.573-.4102-.3237-1.0287-.4855-1.8557-.4855-.8534 0-1.5216.1715-2.0045.5146-.3109.2201-.4664.5146-.4664.8836 0 .3366.1456.6247.4366.8642.3705.3042 1.2702.6214 2.6992.9516 1.4289.3301 2.4841.6732 3.1655 1.0293.688.3495 1.2239.8318 1.6076 1.4468.3903.6085.5855 1.3626.5855 2.2624 0 .8156-.2316 1.5795-.6947 2.2916-.463.712-1.118 1.2429-1.9648 1.5924-.8468.3431-1.9019.5147-3.1655.5147-1.8391 0-3.2516-.4143-4.2373-1.2429-.9857-.8351-1.5745-2.0488-1.7663-3.6413ZM12.4805 31.8767V20.0498H8.16382v-2.4081H19.7245v2.4081h-4.3067v11.8269h-2.9373Z"/></g><defs><clipPath id="a"><path fill="#fff" d="M0 0h32v32H0z"/></clipPath></defs></svg>