<svg xmlns="http://www.w3.org/2000/svg" viewBox="0 0 32 32"><path fill="#529bba" d="M19.33 11.168h-3.878v11.636H12.6V11.168H8.72V9.114h10.495v2.054zm8.785 8.1c0-.571-.228-.913-.57-1.256-.343-.342-1.027-.57-1.94-.912-1.597-.456-2.852-1.027-3.765-1.711-.798-.685-1.255-1.483-1.255-2.624s.457-2.054 1.484-2.738C22.981 9.342 24.236 9 25.719 9s2.738.456 3.65 1.255c.913.799 1.37 1.825 1.37 2.966h-2.624c0-.684-.228-1.14-.685-1.597-.456-.342-1.026-.57-1.825-.57-.684 0-1.255.114-1.711.456-.457.342-.57.798-.57 1.255 0 .456.228.798.684 1.14.456.343 1.14.571 2.281.913 1.484.457 2.624 1.027 3.423 1.711.798.685 1.14 1.598 1.14 2.738 0 1.141-.456 2.168-1.368 2.738-.913.685-2.168 1.027-3.65 1.027-1.484 0-2.853-.342-3.88-1.14-1.026-.8-1.71-1.826-1.597-3.31h2.738c0 .8.228 1.37.799 1.826.456.342 1.255.57 2.053.57.799 0 1.37-.114 1.711-.456.229-.342.457-.798.457-1.255z"/><path fill="#e04e39" d="M10.87 15.603q0 .524-.121.776-.12.252-.295.252H9.307q.24.261.338.6.11.328.11.689 0 .851-.284 1.52-.284.655-.82 1.114-.525.448-1.278.689-.744.229-1.662.229-.47 0-.896-.11-.427-.12-.656-.273-.132.143-.24.34-.099.196-.099.436 0 .318.273.525.285.197.787.219l2.371.087q.831.032 1.475.24.657.198 1.094.568.448.361.677.876.24.513.24 1.169 0 .72-.315 1.355-.318.645-.951 1.115-.636.47-1.596.744-.95.272-2.23.272-1.246 0-2.13-.197-.876-.196-1.443-.545-.558-.35-.82-.842Q1 26.97 1 26.391q0-.361.089-.689.098-.328.272-.635.186-.294.448-.567.263-.274.601-.526-.469-.251-.731-.677-.252-.437-.252-.951 0-.644.295-1.17.295-.535.765-.961-.383-.383-.612-.919-.23-.534-.23-1.333 0-.851.296-1.52.306-.677.84-1.135.537-.47 1.28-.711.743-.252 1.639-.252.46 0 .875.055.426.055.786.154h3.093q.186 0 .295.24.12.24.12.809zm-3.531 2.306q0-.787-.436-1.224-.438-.438-1.235-.438-.406 0-.711.143-.306.132-.514.371-.196.23-.294.547-.099.306-.099.644 0 .744.437 1.181.437.426 1.213.426.415 0 .722-.132.306-.13.502-.36.208-.229.306-.525.109-.306.109-.633zm.645 7.783q0-.492-.393-.756-.393-.261-1.083-.283l-1.955-.055q-.285.207-.46.404-.164.186-.273.361-.098.175-.132.34-.031.163-.031.338 0 .546.545.83.558.285 1.564.285.623 0 1.05-.132.425-.12.687-.327.263-.208.372-.47.108-.252.108-.537z"/></svg>