<?xml version="1.0" encoding="UTF-8" standalone="no"?>
<svg
   viewBox="0 0 32 32"
   version="1.1"
   id="svg559"
   sodipodi:docname="javascript.svg"
   inkscape:version="1.2.2 (732a01da63, 2022-12-09)"
   xmlns:inkscape="http://www.inkscape.org/namespaces/inkscape"
   xmlns:sodipodi="http://sodipodi.sourceforge.net/DTD/sodipodi-0.dtd"
   xmlns="http://www.w3.org/2000/svg"
   xmlns:svg="http://www.w3.org/2000/svg">
  <defs
     id="defs563" />
  <sodipodi:namedview
     id="namedview561"
     pagecolor="#ffffff"
     bordercolor="#000000"
     borderopacity="0.25"
     inkscape:showpageshadow="2"
     inkscape:pageopacity="0.0"
     inkscape:pagecheckerboard="0"
     inkscape:deskcolor="#d1d1d1"
     showgrid="false"
     inkscape:zoom="16.046875"
     inkscape:cx="40.911392"
     inkscape:cy="-6.4186952"
     inkscape:window-width="3840"
     inkscape:window-height="2066"
     inkscape:window-x="-11"
     inkscape:window-y="-11"
     inkscape:window-maximized="1"
     inkscape:current-layer="svg559"
     showguides="false" />
  <path
     fill="#f1dd3f"
     d="m 15.562353,7.1163461 h 3.237873 v 9.1140129 c 0,4.077321 -1.918739,5.516376 -5.156612,5.516376 -0.719528,0 -1.798818,-0.119921 -2.398423,-0.359763 l 0.359763,-2.638267 c 0.479684,0.239843 1.07929,0.359763 1.678896,0.359763 1.319134,0 2.278503,-0.599606 2.278503,-2.878109 z m 6.115982,11.0327529 c 0.839449,0.479684 2.278503,0.959369 3.597637,0.959369 1.558976,0 2.278502,-0.599606 2.278502,-1.558975 0,-0.95937 -0.719526,-1.439055 -2.398424,-2.038661 -2.398424,-0.839448 -3.957399,-2.158582 -3.957399,-4.317164 0,-2.518346 2.038661,-4.3171643 5.516376,-4.3171643 1.678896,0 2.878108,0.3597636 3.717557,0.7195273 l -0.719527,2.638267 c -0.599606,-0.239843 -1.558975,-0.7195276 -2.99803,-0.7195276 -1.439055,0 -2.158583,0.5996066 -2.158583,1.4390556 0,0.959369 0.839449,1.319134 2.638267,2.03866 2.518346,0.95937 3.717558,2.278504 3.717558,4.317164 0,2.398424 -1.91874,4.437085 -5.876139,4.437085 -1.678898,0 -3.237873,-0.479685 -4.077322,-0.839449 z"
     id="path557"
     style="stroke-width:1.19921" />
  <g
     aria-label="g"
     id="text342"
     style="font-style:italic;font-size:18.6667px;font-family:Roboto;-inkscape-font-specification:'Roboto Italic';fill:#e04e39"
     transform="matrix(1.1992121,0,0,1.1992121,-3.5424861,-4.8757755)">
    <path
       d="m 12.069195,16.401643 q 0,0.437501 -0.100261,0.647136 -0.10026,0.209636 -0.246094,0.209636 h -0.957033 q 0.200522,0.218751 0.282553,0.501303 0.09115,0.273438 0.09115,0.57422 0,0.710939 -0.23698,1.266929 -0.236979,0.546876 -0.683595,0.92969 -0.4375005,0.373698 -1.0664079,0.574219 -0.6197927,0.191407 -1.3854191,0.191407 -0.3919278,0 -0.7473972,-0.09115 -0.3554694,-0.100261 -0.546876,-0.227865 -0.1093752,0.11849 -0.2005212,0.282553 -0.082031,0.164062 -0.082031,0.364584 0,0.264323 0.227865,0.4375 0.2369796,0.164063 0.6562512,0.182292 l 1.9778681,0.07292 q 0.6927096,0.02734 1.2304711,0.200521 0.546876,0.164063 0.911459,0.47396 0.373699,0.300781 0.565106,0.729168 0.200521,0.428386 0.200521,0.975262 0,0.601563 -0.264324,1.13021 -0.264323,0.537761 -0.79297,0.929689 -0.528646,0.391928 -1.3307309,0.619793 -0.7929701,0.227865 -1.8593783,0.227865 -1.0390644,0 -1.777347,-0.164063 Q 5.2059014,27.27536 4.7319422,26.983693 4.2670977,26.692026 4.0483473,26.281869 3.8387115,25.880827 3.8387115,25.397753 q 0,-0.300782 0.072917,-0.57422 0.082031,-0.273438 0.227865,-0.528647 0.1549482,-0.246094 0.3736986,-0.473959 0.2187503,-0.227865 0.5013029,-0.437501 -0.3919278,-0.209635 -0.6106781,-0.565105 -0.2096358,-0.364584 -0.2096358,-0.79297 0,-0.537761 0.2460942,-0.975262 Q 4.6863692,20.603473 5.078297,20.248004 4.759286,19.928993 4.5678795,19.482378 4.3764729,19.035762 4.3764729,18.370396 q 0,-0.710938 0.2460941,-1.266929 0.2552088,-0.565105 0.7018242,-0.947918 0.4466154,-0.391928 1.0664082,-0.592449 0.6197928,-0.209636 1.36719,-0.209636 0.3828132,0 0.729168,0.04557 0.3554694,0.04557 0.6562511,0.127604 H 11.72284 q 0.154948,0 0.246094,0.200522 0.100261,0.200521 0.100261,0.67448 z m -2.9440157,1.92318 q 0,-0.656251 -0.3645839,-1.020835 -0.364584,-0.364584 -1.0299498,-0.364584 -0.3372402,0 -0.592449,0.11849 -0.2552088,0.109375 -0.4283862,0.309896 -0.1640628,0.191407 -0.2460942,0.45573 -0.082031,0.255209 -0.082031,0.537762 0,0.619793 0.364584,0.984377 0.364584,0.355469 1.0117206,0.355469 0.3463548,0 0.6015636,-0.109375 0.2552088,-0.109375 0.4192716,-0.300782 0.1731773,-0.191407 0.2552087,-0.437501 0.091146,-0.255209 0.091146,-0.528647 z m 0.5377614,6.489595 q 0,-0.410156 -0.3281256,-0.628907 -0.3281256,-0.21875 -0.9023453,-0.236979 l -1.6315134,-0.04557 q -0.2369796,0.173177 -0.3828132,0.33724 -0.136719,0.154948 -0.227865,0.300781 -0.082031,0.145834 -0.1093752,0.282553 -0.027344,0.136719 -0.027344,0.282553 0,0.45573 0.45573,0.692709 0.4648446,0.23698 1.3033878,0.23698 0.5195322,0 0.8750016,-0.109375 0.3554693,-0.100261 0.5742197,-0.273438 0.2187504,-0.173178 0.3098964,-0.391928 0.091146,-0.209636 0.091146,-0.446616 z"
       style="font-style:normal;font-weight:bold;font-family:Calibri;-inkscape-font-specification:'Calibri Bold'"
       id="path585" />
  </g>
</svg>
